<svg width="23" height="26" viewBox="0 0 23 26" fill="none" xmlns="http://www.w3.org/2000/svg">
<mask id="path-1-inside-1_105_99" fill="white">
<path d="M8.26563 0.840027C7.92766 0.840027 7.65483 1.1019 7.65483 1.42631C7.65483 1.75072 7.92766 2.0126 8.26563 2.0126H14.3737C14.7116 2.0126 14.9845 1.75072 14.9845 1.42631C14.9845 1.1019 14.7116 0.840027 14.3737 0.840027H8.26563ZM3.17562 3.57603C1.7158 3.57603 0.528809 4.71538 0.528809 6.1166C0.528809 7.51782 1.7158 8.65717 3.17562 8.65717H18.8529V20.9692C18.8529 22.8003 17.2994 24.2915 15.3917 24.2915H7.24763C5.33989 24.2915 3.78642 22.8003 3.78642 20.9692V10.8069C3.78642 10.4825 3.51359 10.2206 3.17562 10.2206C2.83764 10.2206 2.56482 10.4825 2.56482 10.8069V20.9692C2.56482 23.4472 4.66597 25.464 7.24763 25.464H15.3917C17.9733 25.464 20.0745 23.4472 20.0745 20.9692V8.58694C21.2391 8.32115 22.1105 7.31653 22.1105 6.1166C22.1105 4.71538 20.9235 3.57603 19.4637 3.57603H3.17562ZM3.17562 4.7486H19.4637C20.2496 4.7486 20.8889 5.36224 20.8889 6.1166C20.8889 6.87095 20.2496 7.4846 19.4637 7.4846H3.17562C2.38972 7.4846 1.75041 6.87095 1.75041 6.1166C1.75041 5.36224 2.38972 4.7486 3.17562 4.7486ZM8.46923 11.3932C8.13126 11.3932 7.85843 11.655 7.85843 11.9795V20.9692C7.85843 21.2936 8.13126 21.5555 8.46923 21.5555C8.80721 21.5555 9.08004 21.2936 9.08004 20.9692V11.9795C9.08004 11.655 8.80721 11.3932 8.46923 11.3932ZM14.1701 11.3932C13.8321 11.3932 13.5592 11.655 13.5592 11.9795V20.9692C13.5592 21.2936 13.8321 21.5555 14.1701 21.5555C14.508 21.5555 14.7809 21.2936 14.7809 20.9692V11.9795C14.7809 11.655 14.508 11.3932 14.1701 11.3932Z"/>
</mask>
<path d="M8.26563 0.840027C7.92766 0.840027 7.65483 1.1019 7.65483 1.42631C7.65483 1.75072 7.92766 2.0126 8.26563 2.0126H14.3737C14.7116 2.0126 14.9845 1.75072 14.9845 1.42631C14.9845 1.1019 14.7116 0.840027 14.3737 0.840027H8.26563ZM3.17562 3.57603C1.7158 3.57603 0.528809 4.71538 0.528809 6.1166C0.528809 7.51782 1.7158 8.65717 3.17562 8.65717H18.8529V20.9692C18.8529 22.8003 17.2994 24.2915 15.3917 24.2915H7.24763C5.33989 24.2915 3.78642 22.8003 3.78642 20.9692V10.8069C3.78642 10.4825 3.51359 10.2206 3.17562 10.2206C2.83764 10.2206 2.56482 10.4825 2.56482 10.8069V20.9692C2.56482 23.4472 4.66597 25.464 7.24763 25.464H15.3917C17.9733 25.464 20.0745 23.4472 20.0745 20.9692V8.58694C21.2391 8.32115 22.1105 7.31653 22.1105 6.1166C22.1105 4.71538 20.9235 3.57603 19.4637 3.57603H3.17562ZM3.17562 4.7486H19.4637C20.2496 4.7486 20.8889 5.36224 20.8889 6.1166C20.8889 6.87095 20.2496 7.4846 19.4637 7.4846H3.17562C2.38972 7.4846 1.75041 6.87095 1.75041 6.1166C1.75041 5.36224 2.38972 4.7486 3.17562 4.7486ZM8.46923 11.3932C8.13126 11.3932 7.85843 11.655 7.85843 11.9795V20.9692C7.85843 21.2936 8.13126 21.5555 8.46923 21.5555C8.80721 21.5555 9.08004 21.2936 9.08004 20.9692V11.9795C9.08004 11.655 8.80721 11.3932 8.46923 11.3932ZM14.1701 11.3932C13.8321 11.3932 13.5592 11.655 13.5592 11.9795V20.9692C13.5592 21.2936 13.8321 21.5555 14.1701 21.5555C14.508 21.5555 14.7809 21.2936 14.7809 20.9692V11.9795C14.7809 11.655 14.508 11.3932 14.1701 11.3932Z" fill="#D4D4D2"/>
<path d="M18.8529 8.65717H23.8529V3.65717H18.8529V8.65717ZM20.0745 8.58694L18.962 3.71227L15.0745 4.59948V8.58694H20.0745ZM8.26563 -4.15997C5.36125 -4.15997 2.65483 -1.85059 2.65483 1.42631H12.6548C12.6548 4.05439 10.4941 5.84003 8.26563 5.84003V-4.15997ZM2.65483 1.42631C2.65483 4.70322 5.36125 7.0126 8.26563 7.0126V-2.9874C10.4941 -2.9874 12.6548 -1.20177 12.6548 1.42631H2.65483ZM8.26563 7.0126H14.3737V-2.9874H8.26563V7.0126ZM14.3737 7.0126C17.278 7.0126 19.9845 4.70322 19.9845 1.42631H9.98445C9.98445 -1.20177 12.1452 -2.9874 14.3737 -2.9874V7.0126ZM19.9845 1.42631C19.9845 -1.85059 17.278 -4.15997 14.3737 -4.15997V5.84003C12.1452 5.84003 9.98445 4.05439 9.98445 1.42631H19.9845ZM14.3737 -4.15997H8.26563V5.84003H14.3737V-4.15997ZM3.17562 -1.42397C-0.850601 -1.42397 -4.47119 1.76288 -4.47119 6.1166H5.52881C5.52881 7.66787 4.2822 8.57603 3.17562 8.57603V-1.42397ZM-4.47119 6.1166C-4.47119 10.4703 -0.850601 13.6572 3.17562 13.6572V3.65717C4.2822 3.65717 5.52881 4.56533 5.52881 6.1166H-4.47119ZM3.17562 13.6572H18.8529V3.65717H3.17562V13.6572ZM13.8529 8.65717V20.9692H23.8529V8.65717H13.8529ZM13.8529 20.9692C13.8529 19.8478 14.733 19.2915 15.3917 19.2915V29.2915C19.8658 29.2915 23.8529 25.7528 23.8529 20.9692H13.8529ZM15.3917 19.2915H7.24763V29.2915H15.3917V19.2915ZM7.24763 19.2915C7.90629 19.2915 8.78642 19.8478 8.78642 20.9692H-1.21358C-1.21358 25.7528 2.77349 29.2915 7.24763 29.2915V19.2915ZM8.78642 20.9692V10.8069H-1.21358V20.9692H8.78642ZM8.78642 10.8069C8.78642 7.52998 6.08 5.2206 3.17562 5.2206V15.2206C0.947193 15.2206 -1.21358 13.435 -1.21358 10.8069H8.78642ZM3.17562 5.2206C0.271239 5.2206 -2.43518 7.52998 -2.43518 10.8069H7.56482C7.56482 13.435 5.40404 15.2206 3.17562 15.2206V5.2206ZM-2.43518 10.8069V20.9692H7.56482V10.8069H-2.43518ZM-2.43518 20.9692C-2.43518 26.3997 2.09957 30.464 7.24763 30.464V20.464C7.27503 20.464 7.33748 20.4782 7.4005 20.5387C7.46681 20.6023 7.56482 20.7551 7.56482 20.9692H-2.43518ZM7.24763 30.464H15.3917V20.464H7.24763V30.464ZM15.3917 30.464C20.5397 30.464 25.0745 26.3997 25.0745 20.9692H15.0745C15.0745 20.7551 15.1725 20.6023 15.2388 20.5387C15.3018 20.4782 15.3643 20.464 15.3917 20.464V30.464ZM25.0745 20.9692V8.58694H15.0745V20.9692H25.0745ZM21.187 13.4616C24.4277 12.722 27.1105 9.84673 27.1105 6.1166H17.1105C17.1105 4.78632 18.0504 3.9203 18.962 3.71227L21.187 13.4616ZM27.1105 6.1166C27.1105 1.76288 23.4899 -1.42397 19.4637 -1.42397V8.57603C18.3571 8.57603 17.1105 7.66787 17.1105 6.1166H27.1105ZM19.4637 -1.42397H3.17562V8.57603H19.4637V-1.42397ZM3.17562 9.7486H19.4637V-0.251402H3.17562V9.7486ZM19.4637 9.7486C17.6832 9.7486 15.8889 8.31474 15.8889 6.1166H25.8889C25.8889 2.40975 22.816 -0.251402 19.4637 -0.251402V9.7486ZM15.8889 6.1166C15.8889 3.91846 17.6832 2.4846 19.4637 2.4846V12.4846C22.816 12.4846 25.8889 9.82345 25.8889 6.1166H15.8889ZM19.4637 2.4846H3.17562V12.4846H19.4637V2.4846ZM3.17562 2.4846C4.95612 2.4846 6.75041 3.91846 6.75041 6.1166H-3.24959C-3.24959 9.82345 -0.176683 12.4846 3.17562 12.4846V2.4846ZM6.75041 6.1166C6.75041 8.31474 4.95612 9.7486 3.17562 9.7486V-0.251402C-0.176683 -0.251402 -3.24959 2.40975 -3.24959 6.1166H6.75041ZM8.46923 6.39317C5.56486 6.39317 2.85843 8.70255 2.85843 11.9795H12.8584C12.8584 14.6075 10.6977 16.3932 8.46923 16.3932V6.39317ZM2.85843 11.9795V20.9692H12.8584V11.9795H2.85843ZM2.85843 20.9692C2.85843 24.2461 5.56486 26.5555 8.46923 26.5555V16.5555C10.6977 16.5555 12.8584 18.3411 12.8584 20.9692H2.85843ZM8.46923 26.5555C11.3736 26.5555 14.08 24.2461 14.08 20.9692H4.08004C4.08004 18.3411 6.24081 16.5555 8.46923 16.5555V26.5555ZM14.08 20.9692V11.9795H4.08004V20.9692H14.08ZM14.08 11.9795C14.08 8.70255 11.3736 6.39317 8.46923 6.39317V16.3932C6.24081 16.3932 4.08004 14.6075 4.08004 11.9795H14.08ZM14.1701 6.39317C11.2657 6.39317 8.55925 8.70255 8.55925 11.9795H18.5592C18.5592 14.6075 16.3985 16.3932 14.1701 16.3932V6.39317ZM8.55925 11.9795V20.9692H18.5592V11.9795H8.55925ZM8.55925 20.9692C8.55925 24.2461 11.2657 26.5555 14.1701 26.5555V16.5555C16.3985 16.5555 18.5592 18.3411 18.5592 20.9692H8.55925ZM14.1701 26.5555C17.0744 26.5555 19.7809 24.2461 19.7809 20.9692H9.78085C9.78085 18.3411 11.9416 16.5555 14.1701 16.5555V26.5555ZM19.7809 20.9692V11.9795H9.78085V20.9692H19.7809ZM19.7809 11.9795C19.7809 8.70255 17.0744 6.39317 14.1701 6.39317V16.3932C11.9416 16.3932 9.78085 14.6075 9.78085 11.9795H19.7809Z" fill="#D4D4D2" mask="url(#path-1-inside-1_105_99)"/>
</svg>
