<svg width="50" height="50" viewBox="0 0 50 50" fill="none" xmlns="http://www.w3.org/2000/svg">
<path d="M6.16731 42.4878C16.1755 52.5041 32.4711 52.5041 42.4877 42.4878C52.5041 32.4711 52.5041 16.1759 42.4877 6.16363C39.8371 3.51749 36.6058 1.49823 32.8895 0.181478C31.7188 -0.228275 30.4227 0.0687043 29.5534 0.94239C28.6753 1.82029 28.3785 3.11617 28.7923 4.27841C31.309 11.3768 29.595 19.0604 24.3275 24.328C19.0683 29.591 11.3846 31.301 4.27784 28.7928C3.11559 28.379 1.81548 28.676 0.941783 29.5539C0.0636727 30.4231 -0.228896 31.7234 0.185076 32.8899C1.49361 36.606 3.51692 39.8372 6.16731 42.4878ZM37.9476 10.7036C45.4602 18.216 45.4602 30.4396 37.9476 37.9478C29.921 45.9785 16.2507 45.2551 9.25253 36.3088C16.4683 36.7603 23.575 34.1559 28.8676 28.8674C34.1601 23.5791 36.7603 16.4723 36.309 9.25685C36.8857 9.70874 37.4335 10.1895 37.9476 10.7036Z" fill="#505050"/>
</svg>
